<svg version="1.1" xmlns="http://www.w3.org/2000/svg" viewBox="0 0 2738.0214519683823 1010.4029782487326" width="2738.0214519683823" height="1010.4029782487326">
  <!-- svg-source:excalidraw -->
  
  <defs>
    <style class="style-fonts">
      @font-face {
        font-family: "Virgil";
        src: url("https://excalidraw.com/Virgil.woff2");
      }
      @font-face {
        font-family: "Cascadia";
        src: url("https://excalidraw.com/Cascadia.woff2");
      }
    </style>
  </defs>
  <rect x="0" y="0" width="2738.0214519683823" height="1010.4029782487326" fill="#ffffff"></rect><g stroke-linecap="round" transform="translate(1094.8172815991834 10) rotate(0 90 21)"><path d="M10.5 0 M10.5 0 C57.84 -2.29, 106.22 -2.31, 169.5 0 M10.5 0 C44.42 0.84, 79.23 1.21, 169.5 0 M169.5 0 C176.52 -0.17, 179.21 4.93, 180 10.5 M169.5 0 C177.8 -1.51, 181.39 2.65, 180 10.5 M180 10.5 C180.77 18.23, 180.44 26.65, 180 31.5 M180 10.5 C179.93 17.19, 180.01 24.88, 180 31.5 M180 31.5 C181.41 39.08, 177.22 40.93, 169.5 42 M180 31.5 C178.17 39.65, 178.25 42.92, 169.5 42 M169.5 42 C123.52 41.63, 76.62 42.25, 10.5 42 M169.5 42 C126.34 41.37, 85.87 40.98, 10.5 42 M10.5 42 C1.86 42.31, 1.17 37.1, 0 31.5 M10.5 42 C5.67 40.6, -0.98 39.94, 0 31.5 M0 31.5 C-1.87 26.76, 1.13 21.62, 0 10.5 M0 31.5 C0.77 25.99, -0.67 20.41, 0 10.5 M0 10.5 C1.15 2.42, 4.98 -0.28, 10.5 0 M0 10.5 C-1.05 2, 3.8 -1.56, 10.5 0" stroke="#000000" stroke-width="2" fill="none"></path></g><g transform="translate(1116.8172815991834 15) rotate(0 68 16)"><text x="68" y="25" font-family="Helvetica, Segoe UI Emoji" font-size="28px" fill="#000000" text-anchor="middle" style="white-space: pre;" direction="ltr">Main Page</text></g><g stroke-linecap="round"><g transform="translate(667.1208380208791 122.26790582419693) rotate(0 516.0712955388659 0.18519093873200632)"><path d="M0.14 -0.89 C172.22 -0.53, 861.34 1.15, 1033.39 1.19 M-1.25 1.25 C170.69 1.4, 860.87 -0.16, 1033.04 -0.31" stroke="#000000" stroke-width="2" fill="none"></path></g></g><mask></mask><g stroke-linecap="round" transform="translate(569.575189367234 198.22843857662872) rotate(0 102.09951415288825 22.78807809977465)"><path d="M11.39 0 M11.39 0 C65.6 0.77, 116.57 -1.81, 192.8 0 M11.39 0 C73.28 0.3, 134.6 0.29, 192.8 0 M192.8 0 C199.89 0.91, 205.43 4.1, 204.2 11.39 M192.8 0 C200.63 1.72, 204.83 3.12, 204.2 11.39 M204.2 11.39 C204.8 18.33, 205.5 27.64, 204.2 34.18 M204.2 11.39 C203.84 19.05, 203.85 29, 204.2 34.18 M204.2 34.18 C205.23 41.56, 199.8 43.89, 192.8 45.58 M204.2 34.18 C202.9 40, 199.52 47.28, 192.8 45.58 M192.8 45.58 C146.94 44.4, 98.76 47.69, 11.39 45.58 M192.8 45.58 C125.25 45.74, 59.54 44.49, 11.39 45.58 M11.39 45.58 C5.1 43.68, -1.59 41.99, 0 34.18 M11.39 45.58 C4.26 47.7, -1.54 40.25, 0 34.18 M0 34.18 C-0.05 28.29, -0.5 21.02, 0 11.39 M0 34.18 C-0.19 27.46, 0.42 20.28, 0 11.39 M0 11.39 C0.83 5.32, 5.25 -1, 11.39 0 M0 11.39 C-1.64 3.88, 2.92 -1.43, 11.39 0" stroke="#000000" stroke-width="2" fill="none"></path></g><g transform="translate(592.6747035201222 205.0165166764034) rotate(0 79 16)"><text x="79" y="25" font-family="Helvetica, Segoe UI Emoji" font-size="28px" fill="#000000" text-anchor="middle" style="white-space: pre;" direction="ltr">Admin Login</text></g><g stroke-linecap="round" transform="translate(1586.0273045591136 197.15492112342736) rotate(0 114 24)"><path d="M12 0 M12 0 C71.4 3.25, 127.42 3.26, 216 0 M12 0 C85.31 0.24, 160.07 -0.27, 216 0 M216 0 C222.86 0.33, 228.68 4.31, 228 12 M216 0 C223.69 1.03, 227.49 3.55, 228 12 M228 12 C229.28 15.68, 226.8 24.96, 228 36 M228 12 C227.45 18.72, 228.33 24.96, 228 36 M228 36 C227.12 44.45, 223.39 46.68, 216 48 M228 36 C230.21 41.9, 226.14 46.68, 216 48 M216 48 C141.14 49.7, 69.76 48.53, 12 48 M216 48 C146.28 47.29, 77.19 47.6, 12 48 M12 48 C4.22 46.23, 1.45 44.75, 0 36 M12 48 C6.11 47.24, 0.16 44.33, 0 36 M0 36 C1.86 32.74, -1.21 27.27, 0 12 M0 36 C0.38 30.89, 0.01 25.28, 0 12 M0 12 C-1.19 5.17, 2.15 1.42, 12 0 M0 12 C1.59 2.47, 2.76 1.8, 12 0" stroke="#000000" stroke-width="2" fill="none"></path></g><g transform="translate(1600.0273045591136 205.15492112342736) rotate(0 100 16)"><text x="100" y="25" font-family="Helvetica, Segoe UI Emoji" font-size="28px" fill="#000000" text-anchor="middle" style="white-space: pre;" direction="ltr">Customer Login</text></g><g stroke-linecap="round"><g transform="translate(670.1170199194619 242.13259524354584) rotate(0 0.13611850028556205 39.996742629158064)"><path d="M-0.62 0.68 C-0.81 13.95, -1 65.64, -1.03 78.73 M1.26 -0.01 C1.42 13.51, 1.08 66.58, 1.14 80" stroke="#000000" stroke-width="2" fill="none"></path></g></g><mask></mask><g stroke-linecap="round"><g transform="translate(497.3006271146022 321.4467441494584) rotate(0 172.45585436358826 0.4469319125475977)"><path d="M-0.83 -0.67 C56.73 -0.7, 288.1 -0.85, 345.74 -0.54 M0.94 1.6 C58.32 1.76, 287.75 1.07, 344.92 0.71" stroke="#000000" stroke-width="2" fill="none"></path></g></g><mask></mask><g stroke-linecap="round"><g transform="translate(1528.7984529822545 325.43075913508557) rotate(0 341.5338083745629 -0.013694357553731606)"><path d="M0.47 1.07 C114.29 1.15, 569.83 0.84, 683.81 0.67 M-0.74 0.58 C112.81 0.3, 568.57 -1.23, 682.62 -1.1" stroke="#000000" stroke-width="2" fill="none"></path></g></g><mask></mask><g stroke-linecap="round" transform="translate(398.08210184467646 403.5284611226106) rotate(0 102.09951415288825 22.78807809977468)"><path d="M11.39 0 M11.39 0 C80.88 0.06, 149.99 -1.19, 192.8 0 M11.39 0 C84.24 1.12, 156.78 1.51, 192.8 0 M192.8 0 C198.47 -0.62, 204.38 4.46, 204.2 11.39 M192.8 0 C202.53 1.4, 204.9 4.49, 204.2 11.39 M204.2 11.39 C205.9 21.12, 206.14 28.91, 204.2 34.18 M204.2 11.39 C204.52 15.82, 203.95 20.77, 204.2 34.18 M204.2 34.18 C203.04 41.3, 199.26 44.18, 192.8 45.58 M204.2 34.18 C205.85 41.36, 200.11 46.2, 192.8 45.58 M192.8 45.58 C123.16 43.99, 51.5 42.3, 11.39 45.58 M192.8 45.58 C153.78 45.66, 116.43 45.53, 11.39 45.58 M11.39 45.58 C4.07 44.08, -1.31 41.21, 0 34.18 M11.39 45.58 C2.13 44.58, 0.76 43.93, 0 34.18 M0 34.18 C1.32 25.97, 2.1 18.78, 0 11.39 M0 34.18 C-0.92 29.17, -0.3 25.56, 0 11.39 M0 11.39 C1.01 5.63, 4.76 0.06, 11.39 0 M0 11.39 C1.29 3.76, 5.99 0.26, 11.39 0" stroke="#000000" stroke-width="2" fill="none"></path></g><g transform="translate(422.68161599756473 410.3165392223853) rotate(0 77.5 16)"><text x="77.5" y="25" font-family="Helvetica, Segoe UI Emoji" font-size="28px" fill="#000000" text-anchor="middle" style="white-space: pre;" direction="ltr">Login Failed</text></g><g stroke-linecap="round" transform="translate(713.279898317583 403.52851143343463) rotate(0 126.5 24.5)"><path d="M12.25 0 M12.25 0 C104.17 1.26, 195.56 1.93, 240.75 0 M12.25 0 C58.99 0.61, 105.7 0.08, 240.75 0 M240.75 0 C249.52 0.87, 254.45 5.99, 253 12.25 M240.75 0 C250.69 2.18, 255.05 6.22, 253 12.25 M253 12.25 C253.46 16.67, 252.32 22.16, 253 36.75 M253 12.25 C252.24 18.9, 252.76 23.99, 253 36.75 M253 36.75 C253.54 46.73, 247.26 47.54, 240.75 49 M253 36.75 C254.36 44.61, 249.32 46.75, 240.75 49 M240.75 49 C191.38 48.91, 144.87 48.69, 12.25 49 M240.75 49 C168.89 47.1, 97.13 48, 12.25 49 M12.25 49 C5.95 49.66, -0.95 46.01, 0 36.75 M12.25 49 C5.48 48.28, 2.29 44.66, 0 36.75 M0 36.75 C-1.69 31.11, -0.44 28.3, 0 12.25 M0 36.75 C-0.2 28.72, -0.24 20.53, 0 12.25 M0 12.25 C0.23 2.68, 2.69 1.36, 12.25 0 M0 12.25 C0.01 3.2, 4.61 0.13, 12.25 0" stroke="#000000" stroke-width="2" fill="none"></path></g><g transform="translate(732.779898317583 412.02851143343463) rotate(0 107 16)"><text x="107" y="25" font-family="Helvetica, Segoe UI Emoji" font-size="28px" fill="#000000" text-anchor="middle" style="white-space: pre;" direction="ltr">Login Successful</text></g><g stroke-linecap="round" transform="translate(1340.598466629908 405.7006651154049) rotate(0 178.5 26.5)"><path d="M13.25 0 M13.25 0 C107.88 -0.5, 201.4 1.85, 343.75 0 M13.25 0 C105.35 0.55, 198.86 0.55, 343.75 0 M343.75 0 C350.75 1.73, 355.35 2.92, 357 13.25 M343.75 0 C352.54 -1.51, 357.62 6.5, 357 13.25 M357 13.25 C355.43 20.36, 355.79 30.23, 357 39.75 M357 13.25 C356.07 21.53, 356.97 27.49, 357 39.75 M357 39.75 C357.8 47.79, 352.09 52.15, 343.75 53 M357 39.75 C355.45 49.95, 351.89 52.1, 343.75 53 M343.75 53 C214.16 55.14, 86.06 52.58, 13.25 53 M343.75 53 C267.07 51.18, 189.45 51.77, 13.25 53 M13.25 53 C3.37 51.64, 0.69 50.4, 0 39.75 M13.25 53 C6.43 52.87, -1.24 49.88, 0 39.75 M0 39.75 C1.71 30.07, 1.36 25.27, 0 13.25 M0 39.75 C-0.63 31.09, 0.09 23.1, 0 13.25 M0 13.25 C-0.7 5.97, 3.61 -0.6, 13.25 0 M0 13.25 C1.34 3.34, 6.31 -0.93, 13.25 0" stroke="#000000" stroke-width="2" fill="none"></path></g><g transform="translate(1348.598466629908 416.2006651154049) rotate(0 170.5 16)"><text x="170.5" y="25" font-family="Helvetica, Segoe UI Emoji" font-size="28px" fill="#000000" text-anchor="middle" style="white-space: pre;" direction="ltr">Sign Up / User Registration</text></g><g stroke-linecap="round" transform="translate(1744.1535734024346 404.56421457786604) rotate(0 126.5 24.5)"><path d="M12.25 0 M12.25 0 C91.56 -2.75, 170.77 -1.83, 240.75 0 M12.25 0 C93.94 1.1, 174.93 0.55, 240.75 0 M240.75 0 C249.2 0.31, 254.55 2.45, 253 12.25 M240.75 0 C248.81 -0.47, 254.3 1.93, 253 12.25 M253 12.25 C251.05 16.01, 251.26 22.05, 253 36.75 M253 12.25 C251.94 21.32, 252.74 29.13, 253 36.75 M253 36.75 C251.83 46.79, 250.41 48.87, 240.75 49 M253 36.75 C253.78 43.66, 249.53 49.89, 240.75 49 M240.75 49 C167.07 47.98, 96.21 46.76, 12.25 49 M240.75 49 C162.11 50.01, 83.15 48.8, 12.25 49 M12.25 49 C5.16 49.6, 1.45 43.57, 0 36.75 M12.25 49 C3.96 48.45, -1.22 45.6, 0 36.75 M0 36.75 C-0.35 28.91, -1.41 22.49, 0 12.25 M0 36.75 C0.71 29.93, 0.95 22.48, 0 12.25 M0 12.25 C-0.71 3.11, 5.14 -0.1, 12.25 0 M0 12.25 C0.66 5.48, 2.63 0.01, 12.25 0" stroke="#000000" stroke-width="2" fill="none"></path></g><g transform="translate(1763.6535734024346 413.06421457786604) rotate(0 107 16)"><text x="107" y="25" font-family="Helvetica, Segoe UI Emoji" font-size="28px" fill="#000000" text-anchor="middle" style="white-space: pre;" direction="ltr">Login Successful</text></g><g stroke-linecap="round"><g transform="translate(142.24126535452285 660.2115265131342) rotate(0 421.1377082765462 -0.07296917438509354)"><path d="M0.94 0.82 C141.28 0.59, 702.02 -0.87, 842.3 -0.97 M-0.03 0.21 C140.19 0.05, 701.32 -0.19, 841.74 0.06" stroke="#000000" stroke-width="2" fill="none"></path></g></g><mask></mask><g stroke-linecap="round" transform="translate(77.33923681756448 741.6188739521299) rotate(0 64 22.5)"><path d="M11.25 0 M11.25 0 C35 -0.94, 59.34 1.63, 116.75 0 M11.25 0 C45.74 1.07, 78.73 -0.02, 116.75 0 M116.75 0 C124.89 -1.66, 126.67 1.93, 128 11.25 M116.75 0 C123.61 -2.27, 127.71 4.94, 128 11.25 M128 11.25 C127.7 17.88, 127.91 24.73, 128 33.75 M128 11.25 C128.46 18.98, 127.09 25.9, 128 33.75 M128 33.75 C129.65 40.21, 124.55 44.01, 116.75 45 M128 33.75 C125.84 41.21, 122.26 45.67, 116.75 45 M116.75 45 C88.64 45.01, 63.26 44.5, 11.25 45 M116.75 45 C83.45 45.67, 52.59 46.59, 11.25 45 M11.25 45 C4.52 45.83, -0.66 39.48, 0 33.75 M11.25 45 C3.34 46.48, -0.93 41.71, 0 33.75 M0 33.75 C-1.27 28.04, 1.24 25.14, 0 11.25 M0 33.75 C-0.17 29.71, -0.37 23.14, 0 11.25 M0 11.25 C-0.74 5.25, 4.2 0, 11.25 0 M0 11.25 C0.04 4.65, 5.96 2.18, 11.25 0" stroke="#000000" stroke-width="2" fill="none"></path></g><g transform="translate(92.83923681756448 748.1188739521299) rotate(0 48.5 16)"><text x="48.5" y="25" font-family="Helvetica, Segoe UI Emoji" font-size="28px" fill="#000000" text-anchor="middle" style="white-space: pre;" direction="ltr">Log-out</text></g><g stroke-linecap="round" transform="translate(325.9543504230786 741.1471040941906) rotate(0 94 21)"><path d="M10.5 0 M10.5 0 C66.04 2.45, 118.38 -1.25, 177.5 0 M10.5 0 C46.63 -1.22, 83.37 -1.16, 177.5 0 M177.5 0 C183.17 -1.82, 187.45 1.53, 188 10.5 M177.5 0 C184.21 1.19, 187.4 4.93, 188 10.5 M188 10.5 C187.73 19.7, 188.49 26.72, 188 31.5 M188 10.5 C187.17 16.1, 188.92 21.3, 188 31.5 M188 31.5 C188.3 37.51, 182.62 41.96, 177.5 42 M188 31.5 C186.01 39.17, 183.37 40.33, 177.5 42 M177.5 42 C112.01 39.78, 47.72 40.23, 10.5 42 M177.5 42 C115.2 42.53, 51.76 42.17, 10.5 42 M10.5 42 C2.84 40.23, -0.36 39.78, 0 31.5 M10.5 42 C2.57 42.46, -1.55 39.49, 0 31.5 M0 31.5 C1.46 25.18, -1.58 17.09, 0 10.5 M0 31.5 C-0.16 25.84, -0.38 22.8, 0 10.5 M0 10.5 C0.45 3.5, 3.53 0.78, 10.5 0 M0 10.5 C2.21 5.68, 4.82 0.27, 10.5 0" stroke="#000000" stroke-width="2" fill="none"></path></g><g transform="translate(334.9543504230786 746.1471040941906) rotate(0 85 16)"><text x="85" y="25" font-family="Helvetica, Segoe UI Emoji" font-size="28px" fill="#000000" text-anchor="middle" style="white-space: pre;" direction="ltr">Add Products</text></g><g stroke-linecap="round" transform="translate(597.6854960195732 741.1471040941906) rotate(0 92.5 21)"><path d="M10.5 0 M10.5 0 C54.3 -3.36, 95.63 -0.17, 174.5 0 M10.5 0 C63.23 0.64, 114.65 0.56, 174.5 0 M174.5 0 C180.95 -1.97, 184.75 4.54, 185 10.5 M174.5 0 C180.9 1.43, 186.92 3, 185 10.5 M185 10.5 C185.51 17.4, 184.37 24.97, 185 31.5 M185 10.5 C185.63 17.06, 184.96 24.16, 185 31.5 M185 31.5 C183.12 38.46, 179.77 42.59, 174.5 42 M185 31.5 C183.87 36.83, 183.55 40.13, 174.5 42 M174.5 42 C133.04 39.82, 92.82 39.13, 10.5 42 M174.5 42 C128.05 43.68, 80.5 42.38, 10.5 42 M10.5 42 C3.14 43.28, -0.81 38.9, 0 31.5 M10.5 42 C1.95 42.99, 2.06 37.15, 0 31.5 M0 31.5 C-1.84 27.67, -1.64 20.01, 0 10.5 M0 31.5 C-0.34 24.27, 0.25 15.55, 0 10.5 M0 10.5 C0.03 4.28, 5.42 1.89, 10.5 0 M0 10.5 C1.32 3.77, 3.33 -0.46, 10.5 0" stroke="#000000" stroke-width="2" fill="none"></path></g><g transform="translate(608.1854960195732 746.1471040941906) rotate(0 82 16)"><text x="82" y="25" font-family="Helvetica, Segoe UI Emoji" font-size="28px" fill="#000000" text-anchor="middle" style="white-space: pre;" direction="ltr">Products List</text></g><g stroke-linecap="round" transform="translate(876.4929735326428 738.7883411854996) rotate(0 102.09951415288828 22.78807809977468)"><path d="M11.39 0 M11.39 0 C81.01 3.02, 154.33 1.38, 192.8 0 M11.39 0 C48.92 0.6, 87.5 0.52, 192.8 0 M192.8 0 C200.15 1.04, 203.68 5.05, 204.2 11.39 M192.8 0 C202.32 -0.5, 204.73 3.54, 204.2 11.39 M204.2 11.39 C203.65 20.44, 205 25.83, 204.2 34.18 M204.2 11.39 C204.54 17.6, 203.45 24.77, 204.2 34.18 M204.2 34.18 C202.47 42.36, 199.42 44.12, 192.8 45.58 M204.2 34.18 C206.25 39.91, 199.34 44.98, 192.8 45.58 M192.8 45.58 C153.03 42.98, 109.87 46.19, 11.39 45.58 M192.8 45.58 C124.07 45.44, 55.8 46.97, 11.39 45.58 M11.39 45.58 C2.99 45.98, -1.35 42.64, 0 34.18 M11.39 45.58 C5.86 44.23, -0.55 43.32, 0 34.18 M0 34.18 C-1.31 25.34, 1.79 15.97, 0 11.39 M0 34.18 C0.31 29.48, 0.1 25.17, 0 11.39 M0 11.39 C1.92 5.69, 4.95 0.24, 11.39 0 M0 11.39 C-0.17 3.34, 3.02 -1.56, 11.39 0" stroke="#000000" stroke-width="2" fill="none"></path></g><g transform="translate(884.0924876855312 745.5764192852744) rotate(0 94.5 16)"><text x="94.5" y="25" font-family="Helvetica, Segoe UI Emoji" font-size="28px" fill="#000000" text-anchor="middle" style="white-space: pre;" direction="ltr">Customers List</text></g><g stroke-linecap="round" transform="translate(717.3375659680644 528.0758472368259) rotate(0 122.5 24.5)"><path d="M12.25 0 M12.25 0 C72.29 -1.19, 132.9 -0.6, 232.75 0 M12.25 0 C84.72 0.9, 155.6 0.53, 232.75 0 M232.75 0 C242.57 -1.04, 245.3 3.1, 245 12.25 M232.75 0 C238.75 -0.04, 243.01 4.76, 245 12.25 M245 12.25 C243.19 17.48, 244.3 23.11, 245 36.75 M245 12.25 C244.03 19.64, 245.64 28.1, 245 36.75 M245 36.75 C245.77 45.74, 240.26 47.23, 232.75 49 M245 36.75 C244.59 46.39, 239.99 49.46, 232.75 49 M232.75 49 C180.43 50.3, 131.31 52.32, 12.25 49 M232.75 49 C185.38 48.26, 137.79 46.76, 12.25 49 M12.25 49 C3.34 50.5, 0.45 44.91, 0 36.75 M12.25 49 C4.12 49.9, 2.21 47.1, 0 36.75 M0 36.75 C-0.43 27.31, -1.39 19.19, 0 12.25 M0 36.75 C0.81 30.53, -0.3 25.46, 0 12.25 M0 12.25 C-0.48 3.46, 5.46 1.36, 12.25 0 M0 12.25 C0.5 1.94, 2.91 -0.73, 12.25 0" stroke="#000000" stroke-width="2" fill="none"></path></g><g transform="translate(725.3375659680644 536.5758472368259) rotate(0 114.5 16)"><text x="114.5" y="25" font-family="Helvetica, Segoe UI Emoji" font-size="28px" fill="#000000" text-anchor="middle" style="white-space: pre;" direction="ltr">Admin HomePage</text></g><g stroke-linecap="round"><g transform="translate(842.3283390282924 578.706164257459) rotate(0 0.46071305003371776 40.32959196840483)"><path d="M-0.52 0.62 C-0.28 13.9, 1.07 65.95, 0.99 79.22 M1.41 -0.09 C1.62 13.42, 0.57 67.67, 0.56 80.75" stroke="#000000" stroke-width="2" fill="none"></path></g></g><mask></mask><g stroke-linecap="round"><g transform="translate(12.636069067950302 764.4192464101645) rotate(0 -0.06684150485764917 -364.9877323324259)"><path d="M0.23 0.16 C0.48 -121.37, 1 -608.59, 0.98 -730.14 M-1.11 -0.8 C-0.88 -122.03, 0.47 -606.87, 0.54 -728.55" stroke="#000000" stroke-width="2" fill="none"></path></g></g><mask></mask><g stroke-linecap="round"><g transform="translate(13.036518897585324 32.35530879771997) rotate(0 539.0263345106765 -0.2516274004021284)"><path d="M0.18 0.14 C179.79 0.44, 897.31 0.7, 1076.89 0.69 M-1.19 -0.83 C178.89 -0.78, 899.56 -1.45, 1079.24 -1.07" stroke="#000000" stroke-width="2" fill="none"></path></g><g transform="translate(13.036518897585324 32.35530879771997) rotate(0 539.0263345106765 -0.2516274004021284)"><path d="M1051.27 8.02 C1058.88 6.82, 1064.47 5.04, 1078.84 -0.86 M1051.28 9.05 C1060.27 5.2, 1070.22 1.21, 1078.38 -1.75" stroke="#000000" stroke-width="2" fill="none"></path></g><g transform="translate(13.036518897585324 32.35530879771997) rotate(0 539.0263345106765 -0.2516274004021284)"><path d="M1051.28 -12.51 C1058.69 -8.9, 1064.28 -5.88, 1078.84 -0.86 M1051.28 -11.47 C1060.38 -8.07, 1070.32 -4.81, 1078.38 -1.75" stroke="#000000" stroke-width="2" fill="none"></path></g></g><mask></mask><g stroke-linecap="round"><g transform="translate(1185.5943232693419 52.54459356245761) rotate(0 0.09080346012700602 35.06608212127351)"><path d="M-0.55 0.21 C-0.84 11.79, -1.35 57.97, -1.14 69.25 M1.37 -0.73 C1.38 11.09, 1.15 59.3, 0.98 70.86" stroke="#000000" stroke-width="2" fill="none"></path></g><g transform="translate(1185.5943232693419 52.54459356245761) rotate(0 0.09080346012700602 35.06608212127351)"><path d="M-8.69 40.69 C-5.36 53.72, -4.06 61.06, 0.39 70.71 M-9.65 42.99 C-5.92 51.59, -2.08 61.8, 0.01 69.98" stroke="#000000" stroke-width="2" fill="none"></path></g><g transform="translate(1185.5943232693419 52.54459356245761) rotate(0 0.09080346012700602 35.06608212127351)"><path d="M11.83 40.87 C7.98 53.75, 2.1 61.03, 0.39 70.71 M10.87 43.17 C7.49 51.91, 4.24 62.05, 0.01 69.98" stroke="#000000" stroke-width="2" fill="none"></path></g></g><mask></mask><g stroke-linecap="round"><g transform="translate(671.3006713436816 121.38191736496947) rotate(0 -0.5635779224063526 36.479432496719454)"><path d="M0.04 -0.11 C0.17 12.17, 0.44 60.5, 0.14 72.86 M-1.4 -1.22 C-1.28 11.31, -0.65 61.96, -0.3 74.18" stroke="#000000" stroke-width="2" fill="none"></path></g><g transform="translate(671.3006713436816 121.38191736496947) rotate(0 -0.5635779224063526 36.479432496719454)"><path d="M-11.29 47.8 C-9.33 51.5, -4.76 60.28, 0.56 74.22 M-10.29 46.98 C-7.8 54.95, -2.88 65.5, 0.11 73.96" stroke="#000000" stroke-width="2" fill="none"></path></g><g transform="translate(671.3006713436816 121.38191736496947) rotate(0 -0.5635779224063526 36.479432496719454)"><path d="M9.23 47.41 C6.15 51.21, 5.69 60.09, 0.56 74.22 M10.22 46.59 C5.96 54.89, 4.11 65.57, 0.11 73.96" stroke="#000000" stroke-width="2" fill="none"></path></g></g><mask></mask><g stroke-linecap="round"><g transform="translate(1701.8116118169526 122.06663394446298) rotate(0 -1.2853466400330262 36.317081288986316)"><path d="M0.04 -0.25 C-0.33 11.69, -1.15 60.43, -1.37 72.78 M-1.4 -1.42 C-2.04 11.19, -2.46 61.86, -2.61 74.06" stroke="#000000" stroke-width="2" fill="none"></path></g><g transform="translate(1701.8116118169526 122.06663394446298) rotate(0 -1.2853466400330262 36.317081288986316)"><path d="M-12.98 44.85 C-9.45 55.41, -4.02 66.73, -2.32 74.42 M-12.95 46.07 C-8.86 53.18, -5.86 61.08, -2.08 74.83" stroke="#000000" stroke-width="2" fill="none"></path></g><g transform="translate(1701.8116118169526 122.06663394446298) rotate(0 -1.2853466400330262 36.317081288986316)"><path d="M7.54 45.07 C3.51 55.55, 1.39 66.8, -2.32 74.42 M7.57 46.28 C5.79 53.43, 2.92 61.26, -2.08 74.83" stroke="#000000" stroke-width="2" fill="none"></path></g></g><mask></mask><g stroke-linecap="round"><g transform="translate(693.6892396811677 661.1887878439782) rotate(0 -0.07033665406349598 40.53554618247733)"><path d="M1.06 0.88 C1.2 14.48, -0.15 67.62, -0.17 80.77 M0.16 0.3 C0.22 13.67, -1.29 65.74, -1.21 79.21" stroke="#000000" stroke-width="2" fill="none"></path></g><g transform="translate(693.6892396811677 661.1887878439782) rotate(0 -0.07033665406349598 40.53554618247733)"><path d="M-9.62 50.6 C-7.36 58.44, -6.91 62.77, -1.35 77.29 M-10.55 51.24 C-8.23 59.21, -6.84 65.94, -0.68 79.69" stroke="#000000" stroke-width="2" fill="none"></path></g><g transform="translate(693.6892396811677 661.1887878439782) rotate(0 -0.07033665406349598 40.53554618247733)"><path d="M10.9 50.88 C8.74 58.83, 4.78 63.11, -1.35 77.29 M9.97 51.51 C6.87 59.36, 2.85 66.03, -0.68 79.69" stroke="#000000" stroke-width="2" fill="none"></path></g></g><mask></mask><g stroke-linecap="round"><g transform="translate(843.2470809774898 449.32255366576777) rotate(0 -0.8241373592057926 37.76136562436119)"><path d="M-0.17 1.08 C-0.33 13.16, 0.23 61.33, 0.1 73.34 M-1.72 0.6 C-2.05 12.81, -0.35 62.61, -0.37 74.92" stroke="#000000" stroke-width="2" fill="none"></path></g><g transform="translate(843.2470809774898 449.32255366576777) rotate(0 -0.8241373592057926 37.76136562436119)"><path d="M-9.34 48.46 C-6.62 57.59, -2.71 66.76, -1.09 74.13 M-10.77 47.75 C-8.85 54.74, -4.48 62.89, -0.65 74.67" stroke="#000000" stroke-width="2" fill="none"></path></g><g transform="translate(843.2470809774898 449.32255366576777) rotate(0 -0.8241373592057926 37.76136562436119)"><path d="M11.18 48.09 C5.93 57.33, 1.87 66.65, -1.09 74.13 M9.74 47.37 C5.98 54.54, 4.66 62.79, -0.65 74.67" stroke="#000000" stroke-width="2" fill="none"></path></g></g><mask></mask><g stroke-linecap="round"><g transform="translate(144.93058893920244 660.7745982216493) rotate(0 -0.12564344872242827 40.48435174105475)"><path d="M0.92 0.08 C0.93 13.3, 0.21 67.08, -0.13 80.41 M-0.05 -0.93 C-0.2 13, -1.35 68.22, -1.15 81.9" stroke="#000000" stroke-width="2" fill="none"></path></g><g transform="translate(144.93058893920244 660.7745982216493) rotate(0 -0.12564344872242827 40.48435174105475)"><path d="M-11.12 53.43 C-8.26 59.72, -5.95 68.92, -1.61 82.99 M-12.1 53.74 C-7.23 63.51, -4.66 72.25, -1.69 81.02" stroke="#000000" stroke-width="2" fill="none"></path></g><g transform="translate(144.93058893920244 660.7745982216493) rotate(0 -0.12564344872242827 40.48435174105475)"><path d="M9.4 53.54 C6.4 59.96, 2.84 69.13, -1.61 82.99 M8.42 53.86 C6.42 63.76, 2.11 72.46, -1.69 81.02" stroke="#000000" stroke-width="2" fill="none"></path></g></g><mask></mask><g stroke-linecap="round"><g transform="translate(417.04849439639713 659.1966225911806) rotate(0 -0.3583560450621732 39.424750478716135)"><path d="M-0.13 -0.09 C-0.48 13.02, -1.1 65.56, -1.16 78.72 M-1.66 -1.18 C-1.74 12.09, 0.92 66.49, 0.95 80.03" stroke="#000000" stroke-width="2" fill="none"></path></g><g transform="translate(417.04849439639713 659.1966225911806) rotate(0 -0.3583560450621732 39.424750478716135)"><path d="M-10.25 50.21 C-6.64 61.87, -2.21 74.27, 1.65 80.76 M-9.57 52.62 C-6.39 62.55, -2.42 72.59, 1.05 79.25" stroke="#000000" stroke-width="2" fill="none"></path></g><g transform="translate(417.04849439639713 659.1966225911806) rotate(0 -0.3583560450621732 39.424750478716135)"><path d="M10.27 49.63 C6.14 61.49, 2.84 74.1, 1.65 80.76 M10.94 52.04 C6.27 62.21, 2.39 72.47, 1.05 79.25" stroke="#000000" stroke-width="2" fill="none"></path></g></g><mask></mask><g stroke-linecap="round"><g transform="translate(984.5387244823135 660.2171357762593) rotate(0 -0.6167036979552165 38.67829064171849)"><path d="M-1.16 -0.44 C-1.21 12.52, -0.78 64.54, -0.47 77.67 M0.44 -1.71 C0.19 11.44, -1.64 66.07, -1.67 79.07" stroke="#000000" stroke-width="2" fill="none"></path></g><g transform="translate(984.5387244823135 660.2171357762593) rotate(0 -0.6167036979552165 38.67829064171849)"><path d="M-12.08 49.88 C-9.03 60.05, -5.08 67.9, -0.02 77.37 M-11.63 50.42 C-8.74 58.53, -5.11 67.41, -2.15 79.21" stroke="#000000" stroke-width="2" fill="none"></path></g><g transform="translate(984.5387244823135 660.2171357762593) rotate(0 -0.6167036979552165 38.67829064171849)"><path d="M8.44 50.3 C5.56 60.15, 3.59 67.88, -0.02 77.37 M8.88 50.84 C5.43 58.91, 2.71 67.67, -2.15 79.21" stroke="#000000" stroke-width="2" fill="none"></path></g></g><mask></mask><g stroke-linecap="round"><g transform="translate(841.9027208007944 320.96223105243917) rotate(0 0.7680728470513998 40.851556446802704)"><path d="M-0.47 -0.27 C0.05 13.66, 1.63 69.16, 2.01 83.17 M1.48 -1.46 C2.01 12.14, 1.44 67.37, 1.4 81.26" stroke="#000000" stroke-width="2" fill="none"></path></g><g transform="translate(841.9027208007944 320.96223105243917) rotate(0 0.7680728470513998 40.851556446802704)"><path d="M-9.14 54.1 C-6.03 59.54, -3.02 62.86, 1.59 82.33 M-9.22 52.13 C-5.15 62.09, -2.23 72.84, 0.57 80.66" stroke="#000000" stroke-width="2" fill="none"></path></g><g transform="translate(841.9027208007944 320.96223105243917) rotate(0 0.7680728470513998 40.851556446802704)"><path d="M11.38 54.22 C10.31 59.56, 9.14 62.85, 1.59 82.33 M11.3 52.26 C8.23 62.12, 4.02 72.82, 0.57 80.66" stroke="#000000" stroke-width="2" fill="none"></path></g></g><mask></mask><g stroke-linecap="round"><g transform="translate(495.7007708453672 321.76207421372624) rotate(0 -0.061559042617570725 41.28003236373996)"><path d="M0.65 0.42 C0.73 14.29, 0.34 69.35, -0.01 82.96 M-0.46 -0.4 C-0.46 13.17, -0.95 67.39, -0.73 81.36" stroke="#000000" stroke-width="2" fill="none"></path></g><g transform="translate(495.7007708453672 321.76207421372624) rotate(0 -0.061559042617570725 41.28003236373996)"><path d="M-10.34 53.93 C-6.77 58.77, -5.55 68.88, 0.23 80.8 M-10.94 52.42 C-8.84 61.18, -6.35 68.19, -0.67 81.3" stroke="#000000" stroke-width="2" fill="none"></path></g><g transform="translate(495.7007708453672 321.76207421372624) rotate(0 -0.061559042617570725 41.28003236373996)"><path d="M10.18 53.88 C8.41 58.86, 4.28 68.97, 0.23 80.8 M9.58 52.38 C6.03 60.97, 2.87 67.99, -0.67 81.3" stroke="#000000" stroke-width="2" fill="none"></path></g></g><mask></mask><g stroke-linecap="round" transform="translate(2108.8377525424885 409.55443135109016) rotate(0 102.09951415288822 22.78807809977468)"><path d="M11.39 0 M11.39 0 C67.99 -1.95, 123.34 -1.35, 192.8 0 M11.39 0 C73.89 -0.58, 136.29 -1.85, 192.8 0 M192.8 0 C202.23 -1.49, 203.52 4.51, 204.2 11.39 M192.8 0 C200.78 -0.19, 205.63 5.44, 204.2 11.39 M204.2 11.39 C204.93 18.44, 203.87 30.2, 204.2 34.18 M204.2 11.39 C204.96 17.41, 204 23.63, 204.2 34.18 M204.2 34.18 C205.2 41.59, 199.27 44.61, 192.8 45.58 M204.2 34.18 C204.84 39.7, 201.35 43.8, 192.8 45.58 M192.8 45.58 C125.32 45.26, 55.82 46.16, 11.39 45.58 M192.8 45.58 C152.48 43.06, 114.44 44.04, 11.39 45.58 M11.39 45.58 C4.51 45.72, 0.89 42.67, 0 34.18 M11.39 45.58 C2.99 46.11, 1.27 41.38, 0 34.18 M0 34.18 C-1.41 30.22, 2.08 22.4, 0 11.39 M0 34.18 C0.69 26.8, 0.84 18.97, 0 11.39 M0 11.39 C-0.91 1.96, 2.67 -0.44, 11.39 0 M0 11.39 C1.67 2.14, 1.9 -0.52, 11.39 0" stroke="#000000" stroke-width="2" fill="none"></path></g><g transform="translate(2133.437266695377 416.34250945086495) rotate(0 77.5 16)"><text x="77.5" y="25" font-family="Helvetica, Segoe UI Emoji" font-size="28px" fill="#000000" text-anchor="middle" style="white-space: pre;" direction="ltr">Login Failed</text></g><g stroke-linecap="round"><g transform="translate(1528.382633259484 327.8950730057907) rotate(0 0.055270736482896154 38.4859844946794)"><path d="M1.09 0.52 C0.97 13.18, 0.1 63.19, -0.02 75.79 M0.2 -0.25 C-0.13 12.61, -0.91 64.27, -0.98 77.23" stroke="#000000" stroke-width="2" fill="none"></path></g><g transform="translate(1528.382633259484 327.8950730057907) rotate(0 0.055270736482896154 38.4859844946794)"><path d="M-10.06 48.89 C-7.75 59.48, -3.73 68.55, 0.52 77.06 M-10.29 49.33 C-7.91 59.93, -2.85 72.19, -0.38 77.76" stroke="#000000" stroke-width="2" fill="none"></path></g><g transform="translate(1528.382633259484 327.8950730057907) rotate(0 0.055270736482896154 38.4859844946794)"><path d="M10.46 49.12 C5.48 59.82, 2.23 68.81, 0.52 77.06 M10.23 49.56 C4.48 59.95, 1.42 72.12, -0.38 77.76" stroke="#000000" stroke-width="2" fill="none"></path></g></g><mask></mask><g stroke-linecap="round"><g transform="translate(1873.152207559313 326.10163542619256) rotate(0 -0.8464811040242921 39.81841364969432)"><path d="M-0.19 0.36 C-0.26 13.48, -0.08 65.63, 0.11 78.71 M-1.75 -0.49 C-2.01 12.82, -1.18 66.7, -0.79 80.13" stroke="#000000" stroke-width="2" fill="none"></path></g><g transform="translate(1873.152207559313 326.10163542619256) rotate(0 -0.8464811040242921 39.81841364969432)"><path d="M-11.02 52.33 C-8.28 63.27, -4.35 73.3, -1.92 78.98 M-11.89 52.51 C-6.77 63.01, -3.09 72.56, -1.31 80.05" stroke="#000000" stroke-width="2" fill="none"></path></g><g transform="translate(1873.152207559313 326.10163542619256) rotate(0 -0.8464811040242921 39.81841364969432)"><path d="M9.5 51.91 C5.2 62.96, 2.08 73.13, -1.92 78.98 M8.63 52.09 C6.28 62.58, 2.5 72.28, -1.31 80.05" stroke="#000000" stroke-width="2" fill="none"></path></g></g><mask></mask><g stroke-linecap="round"><g transform="translate(2212.791453611246 324.60720085549) rotate(0 -0.9653773924494544 41.93098374253668)"><path d="M-0.22 0.9 C-0.3 14.8, -0.02 70.07, -0.1 83.54 M-1.8 0.32 C-2.07 13.92, -1.1 68.3, -1.1 82.02" stroke="#000000" stroke-width="2" fill="none"></path></g><g transform="translate(2212.791453611246 324.60720085549) rotate(0 -0.9653773924494544 41.93098374253668)"><path d="M-10.13 53.76 C-6.21 62.1, -5.8 73.78, -0.28 80.48 M-11.03 54.47 C-8.68 61.01, -5.85 68.9, -1.75 82.83" stroke="#000000" stroke-width="2" fill="none"></path></g><g transform="translate(2212.791453611246 324.60720085549) rotate(0 -0.9653773924494544 41.93098374253668)"><path d="M10.39 53.57 C7.54 61.93, 1.17 73.68, -0.28 80.48 M9.49 54.27 C6.22 61.03, 3.44 68.98, -1.75 82.83" stroke="#000000" stroke-width="2" fill="none"></path></g></g><mask></mask><g stroke-linecap="round"><g transform="translate(2727.1094866697294 630.4537824220438) rotate(0 0.09553336885301178 -300.71947682539457)"><path d="M0.91 0.68 C0.75 -99.62, 0.36 -501.66, 0.15 -602.12 M-0.07 -0.01 C-0.47 -100.12, -0.52 -500.67, -0.72 -600.84" stroke="#000000" stroke-width="2" fill="none"></path></g></g><mask></mask><g stroke-linecap="round"><g transform="translate(2724.0952037275492 31.201701590288593) rotate(0 -723.6179892460982 -0.6951367165190732)"><path d="M0.63 -0.17 C-240.78 -0.37, -1205.92 -1.03, -1447.51 -1.06 M-0.5 -1.31 C-242.05 -1.41, -1206.3 -0.43, -1447.86 -0.07" stroke="#000000" stroke-width="2" fill="none"></path></g><g transform="translate(2724.0952037275492 31.201701590288593) rotate(0 -723.6179892460982 -0.6951367165190732)"><path d="M-1419.97 -8.48 C-1432.1 -6.81, -1441.55 -2.23, -1449.73 1.04 M-1420.37 -9.57 C-1428.51 -7.18, -1437.76 -3.48, -1448.4 -0.96" stroke="#000000" stroke-width="2" fill="none"></path></g><g transform="translate(2724.0952037275492 31.201701590288593) rotate(0 -723.6179892460982 -0.6951367165190732)"><path d="M-1419.95 12.04 C-1432.11 5.94, -1441.57 2.76, -1449.73 1.04 M-1420.34 10.96 C-1428.32 7.01, -1437.57 4.36, -1448.4 -0.96" stroke="#000000" stroke-width="2" fill="none"></path></g></g><mask></mask><g stroke-linecap="round"><g transform="translate(76.73457250046499 765.5896284602902) rotate(0 -32.49462867123049 0.11569446698007368)"><path d="M-0.3 -0.25 C-11.38 -0.07, -54.91 -0.04, -65.53 0.08 M1.75 -1.43 C-9.62 -0.95, -55.74 1.69, -66.73 1.66" stroke="#000000" stroke-width="2" fill="none"></path></g><g transform="translate(76.73457250046499 765.5896284602902) rotate(0 -32.49462867123049 0.11569446698007368)"><path d="M-39.31 -10.32 C-49.37 -3.6, -59.23 -1.65, -65.48 1.45 M-38.22 -9.03 C-46.68 -7.07, -55.48 -2.3, -65.89 0.84" stroke="#000000" stroke-width="2" fill="none"></path></g><g transform="translate(76.73457250046499 765.5896284602902) rotate(0 -32.49462867123049 0.11569446698007368)"><path d="M-38.65 10.19 C-48.79 9.15, -58.9 3.36, -65.48 1.45 M-37.56 11.48 C-46.33 7.28, -55.34 5.89, -65.89 0.84" stroke="#000000" stroke-width="2" fill="none"></path></g></g><mask></mask><g stroke-linecap="round"><g transform="translate(1270.3699575145247 536.3866910803688) rotate(0 158.398746513981 0.330128069982095)"><path d="M-1.06 1.02 C51.37 1.32, 262.5 1.26, 315.55 1.02 M0.58 0.52 C53.31 0.57, 265.13 -0.6, 317.86 -0.56" stroke="#000000" stroke-width="2" fill="none"></path></g></g><mask></mask><g stroke-linecap="round"><g transform="translate(1584.5679378024943 538.0298186458908) rotate(0 -0.3085077188507057 37.7555174994402)"><path d="M0.78 -0.11 C0.63 12.52, -0.28 62.69, -0.29 75.46 M-0.27 -1.22 C-0.66 11.61, -1.49 64.11, -1.39 76.73" stroke="#000000" stroke-width="2" fill="none"></path></g><g transform="translate(1584.5679378024943 538.0298186458908) rotate(0 -0.3085077188507057 37.7555174994402)"><path d="M-11.66 47.99 C-8.89 59.51, -3.59 66.97, -1.62 76.21 M-10.52 48.62 C-7.2 59.38, -3.57 68.71, -2.05 75.8" stroke="#000000" stroke-width="2" fill="none"></path></g><g transform="translate(1584.5679378024943 538.0298186458908) rotate(0 -0.3085077188507057 37.7555174994402)"><path d="M8.86 48.12 C4.45 59.73, 2.56 67.14, -1.62 76.21 M10 48.75 C5.63 59.36, 1.58 68.64, -2.05 75.8" stroke="#000000" stroke-width="2" fill="none"></path></g></g><mask></mask><g stroke-linecap="round"><g transform="translate(1527.669866607369 461.23317022413056) rotate(0 -0.3883636147663765 37.39667734103563)"><path d="M0.56 0.36 C0.43 12.73, -0.24 61.84, -0.24 74.1 M-0.61 -0.49 C-0.97 12.04, -1.43 62.74, -1.32 75.29" stroke="#000000" stroke-width="2" fill="none"></path></g></g><mask></mask><g stroke-linecap="round"><g transform="translate(1700.49633374356 246.8028085119863) rotate(0 -0.3198661584775664 39.334128701193265)"><path d="M0.29 0.39 C0.24 13.61, 0.39 66.34, 0.42 79.12 M-1.02 -0.45 C-1.25 12.48, -0.46 64.54, -0.3 77.6" stroke="#000000" stroke-width="2" fill="none"></path></g></g><mask></mask><g stroke-linecap="round" transform="translate(1179.6820502324874 620.1263973700586) rotate(0 92.5 37)"><path d="M18.5 0 M18.5 0 C48.41 0.5, 80.1 -0.97, 166.5 0 M18.5 0 C69.5 0.1, 119.26 0.64, 166.5 0 M166.5 0 C180.82 0.76, 183.24 6.95, 185 18.5 M166.5 0 C180.07 0.53, 184.16 6.22, 185 18.5 M185 18.5 C184.51 31.51, 184.76 40.5, 185 55.5 M185 18.5 C185.89 31.05, 184.5 41.68, 185 55.5 M185 55.5 C185.84 66.12, 177.83 75.23, 166.5 74 M185 55.5 C183.28 66.39, 178.55 75.7, 166.5 74 M166.5 74 C137.46 74.86, 105.14 72.71, 18.5 74 M166.5 74 C130.13 75.58, 92.41 75.59, 18.5 74 M18.5 74 C4.85 74.69, 0.5 69.19, 0 55.5 M18.5 74 C4.21 75.9, 0.12 66.2, 0 55.5 M0 55.5 C-1.95 43.93, -1.67 30.98, 0 18.5 M0 55.5 C-0.26 47.35, -0.08 39.08, 0 18.5 M0 18.5 C-0.08 5.9, 7.95 0.31, 18.5 0 M0 18.5 C-2.15 5.81, 6.88 1.44, 18.5 0" stroke="#000000" stroke-width="2" fill="none"></path></g><g transform="translate(1193.1820502324874 625.1263973700586) rotate(0 79 32)"><text x="79" y="25" font-family="Helvetica, Segoe UI Emoji" font-size="28px" fill="#000000" text-anchor="middle" style="white-space: pre;" direction="ltr">Registration </text><text x="79" y="57" font-family="Helvetica, Segoe UI Emoji" font-size="28px" fill="#000000" text-anchor="middle" style="white-space: pre;" direction="ltr">Successful</text></g><g stroke-linecap="round" transform="translate(1490.3468851223638 616.724700550112) rotate(0 92.50000000000006 37)"><path d="M18.5 0 M18.5 0 C58.94 0.47, 100.29 -1.57, 166.5 0 M18.5 0 C56.21 -0.17, 96.21 -0.33, 166.5 0 M166.5 0 C178.1 0.04, 185.49 5.12, 185 18.5 M166.5 0 C177.99 -0.34, 186.16 6.12, 185 18.5 M185 18.5 C186.28 27.17, 186.2 31.78, 185 55.5 M185 18.5 C184.66 27.22, 184.41 34.07, 185 55.5 M185 55.5 C184.75 69.31, 176.87 73.2, 166.5 74 M185 55.5 C184.44 68.78, 180.24 72.13, 166.5 74 M166.5 74 C129.97 75.08, 93.21 73.55, 18.5 74 M166.5 74 C109.53 75.19, 51.22 75.33, 18.5 74 M18.5 74 C6.27 72.58, 0.83 68.14, 0 55.5 M18.5 74 C4.18 71.82, 1.23 65.98, 0 55.5 M0 55.5 C-0.15 42.37, 1.21 30.21, 0 18.5 M0 55.5 C0.91 41.47, -0.92 26.97, 0 18.5 M0 18.5 C0.62 7.42, 5.97 -0.46, 18.5 0 M0 18.5 C1.23 6.4, 6.99 0.02, 18.5 0" stroke="#000000" stroke-width="2" fill="none"></path></g><g transform="translate(1498.3468851223638 621.724700550112) rotate(0 84.50000000000006 32)"><text x="84.5" y="25" font-family="Helvetica, Segoe UI Emoji" font-size="28px" fill="#000000" text-anchor="middle" style="white-space: pre;" direction="ltr">Registration </text><text x="84.5" y="57" font-family="Helvetica, Segoe UI Emoji" font-size="28px" fill="#000000" text-anchor="middle" style="white-space: pre;" direction="ltr">Unsuccessful</text></g><g stroke-linecap="round"><g transform="translate(1871.5698216358849 447.5760606842027) rotate(0 -0.073715236547514 38.80223975981585)"><path d="M0.25 -0.64 C0.38 12.06, 0.94 63.85, 0.93 77.14 M-1.07 1.64 C-1.04 14.39, 0.36 65.62, 0.46 78.24" stroke="#000000" stroke-width="2" fill="none"></path></g></g><mask></mask><g stroke-linecap="round"><g transform="translate(1831.1729935989204 522.2873347344785) rotate(0 372.12959281400003 0.8694502047775359)"><path d="M1.11 0.85 C125.12 0.81, 620.44 0.33, 744.02 0.08 M0.24 0.25 C124.18 0.4, 620.07 1.65, 743.64 1.66" stroke="#000000" stroke-width="2" fill="none"></path></g></g><mask></mask><g stroke-linecap="round"><g transform="translate(1268.1624871835077 535.2565397639394) rotate(0 -0.5891797477272576 40.16045310812905)"><path d="M-0.13 0.71 C-0.07 13.68, 0.28 65.86, 0.48 78.88 M-1.66 0.03 C-1.72 13.71, -0.63 66.97, -0.21 80.29" stroke="#000000" stroke-width="2" fill="none"></path></g><g transform="translate(1268.1624871835077 535.2565397639394) rotate(0 -0.5891797477272576 40.16045310812905)"><path d="M-9.99 53.16 C-7.96 62.73, -4.69 69.63, -1.72 80.26 M-11.06 53.2 C-7.27 62.82, -3.82 73.57, -0.6 80.53" stroke="#000000" stroke-width="2" fill="none"></path></g><g transform="translate(1268.1624871835077 535.2565397639394) rotate(0 -0.5891797477272576 40.16045310812905)"><path d="M10.53 52.66 C6.24 62.36, 3.18 69.41, -1.72 80.26 M9.46 52.7 C5.64 62.51, 1.49 73.45, -0.6 80.53" stroke="#000000" stroke-width="2" fill="none"></path></g></g><mask></mask><g stroke-linecap="round"><g transform="translate(2236.1161813400367 523.9260660356156) rotate(0 -0.4351829498168627 40.14190434285831)"><path d="M-0.99 0.98 C-1.24 14.2, -0.57 66.73, -0.4 79.83 M0.69 0.46 C0.16 13.3, -1.32 65.32, -1.56 78.18" stroke="#000000" stroke-width="2" fill="none"></path></g><g transform="translate(2236.1161813400367 523.9260660356156) rotate(0 -0.4351829498168627 40.14190434285831)"><path d="M-9.48 49.08 C-5.78 60.9, -2.46 70.75, -1.58 79.4 M-11.79 49.12 C-7.81 58.84, -5.33 68.6, -1.59 77.31" stroke="#000000" stroke-width="2" fill="none"></path></g><g transform="translate(2236.1161813400367 523.9260660356156) rotate(0 -0.4351829498168627 40.14190434285831)"><path d="M11.03 49.58 C6.75 61.04, 2.1 70.69, -1.58 79.4 M8.73 49.62 C5.99 59.18, 1.76 68.78, -1.59 77.31" stroke="#000000" stroke-width="2" fill="none"></path></g></g><mask></mask><g stroke-linecap="round"><g transform="translate(2414.2699903946586 523.9261501880947) rotate(0 0.33304070096232863 39.95847331830697)"><path d="M-0.4 0.9 C-0.23 14, 0.07 66.59, 0.01 79.59 M1.59 0.33 C1.69 13, -0.96 64.5, -0.93 77.81" stroke="#000000" stroke-width="2" fill="none"></path></g><g transform="translate(2414.2699903946586 523.9261501880947) rotate(0 0.33304070096232863 39.95847331830697)"><path d="M-8.92 49.38 C-7.02 54.38, -6.08 62.98, -0.38 77.74 M-10.23 49.15 C-8.18 58.31, -4.87 65.85, -1.33 78.09" stroke="#000000" stroke-width="2" fill="none"></path></g><g transform="translate(2414.2699903946586 523.9261501880947) rotate(0 0.33304070096232863 39.95847331830697)"><path d="M11.59 49.93 C9.03 54.75, 5.51 63.22, -0.38 77.74 M10.29 49.7 C6.1 58.57, 3.17 65.94, -1.33 78.09" stroke="#000000" stroke-width="2" fill="none"></path></g></g><mask></mask><g stroke-linecap="round"><g transform="translate(2574.708358036722 525.7643769437873) rotate(0 0.09206318208021003 40.20516575922187)"><path d="M0.01 0.66 C-0.04 13.66, -0.83 65.82, -0.71 78.92 M-1.44 -0.04 C-1.07 13.09, 1.32 66.98, 1.62 80.45" stroke="#000000" stroke-width="2" fill="none"></path></g><g transform="translate(2574.708358036722 525.7643769437873) rotate(0 0.09206318208021003 40.20516575922187)"><path d="M-8.51 51.44 C-6.42 61.27, -2.86 67.39, 1.7 79.12 M-10.06 52.88 C-6.92 58.39, -4.62 66.14, 1.76 81.4" stroke="#000000" stroke-width="2" fill="none"></path></g><g transform="translate(2574.708358036722 525.7643769437873) rotate(0 0.09206318208021003 40.20516575922187)"><path d="M12 50.73 C8.62 60.75, 6.71 67.06, 1.7 79.12 M10.45 52.16 C8.72 57.8, 6.15 65.73, 1.76 81.4" stroke="#000000" stroke-width="2" fill="none"></path></g></g><mask></mask><g stroke-linecap="round" transform="translate(2513.170613045634 609.4332927908763) rotate(0 64 22.5)"><path d="M11.25 0 M11.25 0 C47.65 -1.31, 80.88 -0.11, 116.75 0 M11.25 0 C47.03 0.55, 80.85 0.42, 116.75 0 M116.75 0 C123.08 -0.53, 128.45 3.83, 128 11.25 M116.75 0 C125.9 1.35, 129.53 4.05, 128 11.25 M128 11.25 C125.97 17.23, 127.48 22.67, 128 33.75 M128 11.25 C129.05 18.74, 127.39 25.34, 128 33.75 M128 33.75 C129.86 40.89, 125.56 46.12, 116.75 45 M128 33.75 C129.32 40.95, 124.85 44.34, 116.75 45 M116.75 45 C78.52 44.07, 36.62 46.7, 11.25 45 M116.75 45 C83.69 45.47, 52.55 44.88, 11.25 45 M11.25 45 C2.6 43.34, -1.36 39.98, 0 33.75 M11.25 45 C3.41 43.94, 0.94 43.15, 0 33.75 M0 33.75 C-1.75 26.83, 0.43 19.15, 0 11.25 M0 33.75 C-0.83 26.28, -0.36 18.43, 0 11.25 M0 11.25 C-1.53 2.82, 3.48 -0.18, 11.25 0 M0 11.25 C-1.12 5.41, 2.31 0.69, 11.25 0" stroke="#000000" stroke-width="2" fill="none"></path></g><g transform="translate(2528.670613045634 615.9332927908763) rotate(0 48.5 16)"><text x="48.5" y="25" font-family="Helvetica, Segoe UI Emoji" font-size="28px" fill="#000000" text-anchor="middle" style="white-space: pre;" direction="ltr">Log-out</text></g><g stroke-linecap="round"><g transform="translate(2640.6876202817252 630.2664006569485) rotate(0 41.801664964183374 -0.14735798298204372)"><path d="M-0.09 -1.11 C13.92 -1.4, 69.03 -1.03, 83.06 -0.77 M-1.6 0.92 C12.86 0.68, 71.06 0.8, 85.21 0.37" stroke="#000000" stroke-width="2" fill="none"></path></g><g transform="translate(2640.6876202817252 630.2664006569485) rotate(0 41.801664964183374 -0.14735798298204372)"><path d="M55.29 9.16 C61.81 8.61, 69.89 5.04, 85.76 -0.54 M57.2 11.17 C68.19 6.78, 77.3 3.66, 84.26 -0.46" stroke="#000000" stroke-width="2" fill="none"></path></g><g transform="translate(2640.6876202817252 630.2664006569485) rotate(0 41.801664964183374 -0.14735798298204372)"><path d="M55.05 -11.36 C61.79 -7.49, 69.92 -6.65, 85.76 -0.54 M56.96 -9.35 C68.16 -6.29, 77.37 -1.96, 84.26 -0.46" stroke="#000000" stroke-width="2" fill="none"></path></g></g><mask></mask><g stroke-linecap="round" transform="translate(2370.9146303610673 603.9840870623436) rotate(0 43 23)"><path d="M11.5 0 M11.5 0 C32.69 1.39, 52.6 1.05, 74.5 0 M11.5 0 C35.44 -1.23, 60.03 -0.43, 74.5 0 M74.5 0 C83.64 0.15, 87.52 3.63, 86 11.5 M74.5 0 C80.78 -1.48, 84.37 3.33, 86 11.5 M86 11.5 C86.04 20.53, 85.38 30.01, 86 34.5 M86 11.5 C85.5 18.65, 85.32 24.78, 86 34.5 M86 34.5 C85.8 41.89, 81.46 46.01, 74.5 46 M86 34.5 C88.23 40.96, 81.48 44.66, 74.5 46 M74.5 46 C61.4 46.37, 44.53 46.1, 11.5 46 M74.5 46 C62.39 46.53, 48.48 46.51, 11.5 46 M11.5 46 C5.68 44.69, 0.59 42.41, 0 34.5 M11.5 46 C2.16 45.67, 2 41.02, 0 34.5 M0 34.5 C-0.78 30.27, -1.8 23.06, 0 11.5 M0 34.5 C-1.14 26.31, 0.42 18.47, 0 11.5 M0 11.5 C-1.63 4.93, 3.39 -0.83, 11.5 0 M0 11.5 C-2.15 1.87, 2.1 0, 11.5 0" stroke="#000000" stroke-width="2" fill="none"></path></g><g transform="translate(2386.4146303610673 610.9840870623436) rotate(0 27.5 16)"><text x="27.5" y="25" font-family="Helvetica, Segoe UI Emoji" font-size="28px" fill="#000000" text-anchor="middle" style="white-space: pre;" direction="ltr">Cart</text></g><g stroke-linecap="round" transform="translate(2168.2430046741065 608.2626735794795) rotate(0 64.5 21)"><path d="M10.5 0 M10.5 0 C52.17 0.23, 89.56 1.14, 118.5 0 M10.5 0 C43.58 -0.18, 74.54 -0.72, 118.5 0 M118.5 0 C124.08 -0.44, 130.28 3.37, 129 10.5 M118.5 0 C123.69 0.06, 129.76 2.81, 129 10.5 M129 10.5 C128.08 17.97, 129.36 25.75, 129 31.5 M129 10.5 C128.63 15.42, 129.95 19.81, 129 31.5 M129 31.5 C128.4 37.33, 123.95 42.81, 118.5 42 M129 31.5 C130.15 39.57, 125.56 39.8, 118.5 42 M118.5 42 C88.81 43.21, 56.07 41.12, 10.5 42 M118.5 42 C86.26 41.42, 52.7 41.15, 10.5 42 M10.5 42 C5.24 41.01, -0.67 37.41, 0 31.5 M10.5 42 C3.01 40.95, 2.18 36.29, 0 31.5 M0 31.5 C0.85 22.52, 0.22 18.48, 0 10.5 M0 31.5 C-0.05 23.29, -0.76 15.06, 0 10.5 M0 10.5 C-1.51 3.5, 3.67 0.71, 10.5 0 M0 10.5 C2.09 3.17, 4.88 -0.98, 10.5 0" stroke="#000000" stroke-width="2" fill="none"></path></g><g transform="translate(2176.2430046741065 613.2626735794795) rotate(0 56.5 16)"><text x="56.5" y="25" font-family="Helvetica, Segoe UI Emoji" font-size="28px" fill="#000000" text-anchor="middle" style="white-space: pre;" direction="ltr">Products</text></g><g stroke-linecap="round" transform="translate(1751.7092584814 603.2810862749441) rotate(0 81.5 21)"><path d="M10.5 0 M10.5 0 C56.91 0.47, 102.82 -2.25, 152.5 0 M10.5 0 C44.63 0.25, 76.69 0.34, 152.5 0 M152.5 0 C160.16 -0.6, 164.76 3.56, 163 10.5 M152.5 0 C157.93 -1.06, 162.21 3.91, 163 10.5 M163 10.5 C162.59 14.98, 162.87 22.83, 163 31.5 M163 10.5 C162.16 16.1, 163.44 21.36, 163 31.5 M163 31.5 C163.06 36.59, 159.29 40.08, 152.5 42 M163 31.5 C162.39 40.3, 161.22 42.09, 152.5 42 M152.5 42 C112.81 43.9, 75.97 41.86, 10.5 42 M152.5 42 C111.62 40.75, 71.19 40.84, 10.5 42 M10.5 42 C5.4 40.08, 0.82 39.78, 0 31.5 M10.5 42 C5.78 43.13, -2.1 38.91, 0 31.5 M0 31.5 C0.95 23.4, -0.98 14.31, 0 10.5 M0 31.5 C0.24 27.35, 1.06 22.34, 0 10.5 M0 10.5 C1.2 2.65, 2.74 0.07, 10.5 0 M0 10.5 C-0.06 1.63, 1.76 0.98, 10.5 0" stroke="#000000" stroke-width="2" fill="none"></path></g><g transform="translate(1761.2092584814 608.2810862749441) rotate(0 72 16)"><text x="72" y="25" font-family="Helvetica, Segoe UI Emoji" font-size="28px" fill="#000000" text-anchor="middle" style="white-space: pre;" direction="ltr">Add to Cart</text></g><g stroke-linecap="round"><g transform="translate(1833.082053856204 520.635853169031) rotate(0 0.2844634384755409 39.86648599361877)"><path d="M-0.4 0.51 C-0.53 13.71, -0.13 66.99, -0.05 80 M1.59 -0.26 C1.24 12.48, -0.65 64.76, -1.02 78.02" stroke="#000000" stroke-width="2" fill="none"></path></g><g transform="translate(1833.082053856204 520.635853169031) rotate(0 0.2844634384755409 39.86648599361877)"><path d="M-9.5 49.42 C-6.36 59.89, -5.41 69.96, -2.37 76.3 M-10.02 49.37 C-7.71 56.38, -6.07 62.93, -1.32 78.5" stroke="#000000" stroke-width="2" fill="none"></path></g><g transform="translate(1833.082053856204 520.635853169031) rotate(0 0.2844634384755409 39.86648599361877)"><path d="M11.01 50.09 C6.77 60.25, 0.34 70.08, -2.37 76.3 M10.49 50.04 C8.26 56.97, 5.36 63.37, -1.32 78.5" stroke="#000000" stroke-width="2" fill="none"></path></g></g><mask></mask><g stroke-linecap="round" transform="translate(1978.4496140357317 601.0397518660161) rotate(0 59.5 22.5)"><path d="M11.25 0 M11.25 0 C45.95 -0.79, 77.63 -2.32, 107.75 0 M11.25 0 C37.1 -1.74, 62.87 -1.87, 107.75 0 M107.75 0 C113.88 1.58, 118.9 4.27, 119 11.25 M107.75 0 C114.67 1.92, 117.34 2.54, 119 11.25 M119 11.25 C120.23 18.59, 120.51 28.68, 119 33.75 M119 11.25 C119.55 19.35, 118.24 25.72, 119 33.75 M119 33.75 C119.14 42.09, 116.32 45.39, 107.75 45 M119 33.75 C118.07 40.05, 114.45 45.93, 107.75 45 M107.75 45 C72.78 43.07, 39.33 44.48, 11.25 45 M107.75 45 C78.38 44.15, 49.79 45.73, 11.25 45 M11.25 45 C2.47 43.71, -1.57 39.55, 0 33.75 M11.25 45 C1.56 44.81, -2.14 43.5, 0 33.75 M0 33.75 C-1.61 24.67, 1.46 14.99, 0 11.25 M0 33.75 C-0.22 29.06, -0.4 23.17, 0 11.25 M0 11.25 C1.91 5.58, 1.9 0.27, 11.25 0 M0 11.25 C1.14 5.71, 1.98 -0.97, 11.25 0" stroke="#000000" stroke-width="2" fill="none"></path></g><g transform="translate(1992.4496140357317 607.5397518660161) rotate(0 45.5 16)"><text x="45.5" y="25" font-family="Helvetica, Segoe UI Emoji" font-size="28px" fill="#000000" text-anchor="middle" style="white-space: pre;" direction="ltr">Search</text></g><g stroke-linecap="round"><g transform="translate(2038.866469884056 524.6813293965627) rotate(0 -0.39605524591161156 37.355658717672384)"><path d="M-0.21 0.15 C-0.49 12.35, -1.19 61.62, -1.13 74.22 M-1.78 -0.82 C-1.76 11.47, 0.79 63.06, 0.99 75.53" stroke="#000000" stroke-width="2" fill="none"></path></g><g transform="translate(2038.866469884056 524.6813293965627) rotate(0 -0.39605524591161156 37.355658717672384)"><path d="M-10 45.83 C-6.86 57.57, -0.37 67.7, -0.66 76.92 M-10.29 47.97 C-8.4 54.13, -6.58 58.42, 1.56 76.21" stroke="#000000" stroke-width="2" fill="none"></path></g><g transform="translate(2038.866469884056 524.6813293965627) rotate(0 -0.39605524591161156 37.355658717672384)"><path d="M10.51 45.12 C6.58 57.06, 5.98 67.45, -0.66 76.92 M10.22 47.26 C7.93 53.72, 5.57 58.16, 1.56 76.21" stroke="#000000" stroke-width="2" fill="none"></path></g></g><mask></mask><g stroke-linecap="round"><g transform="translate(2412.197991572737 810.2543128373907) rotate(0 0.19244934138191638 -79.16318746863686)"><path d="M-0.81 -0.16 C-1 -26.64, -1.1 -131.84, -0.89 -158.17 M0.96 -1.28 C1.13 -27.69, 1.52 -131.01, 1.35 -156.99" stroke="#000000" stroke-width="2" fill="none"></path></g><g transform="translate(2412.197991572737 810.2543128373907) rotate(0 0.19244934138191638 -79.16318746863686)"><path d="M11.37 -130.29 C7.06 -137.1, 3.85 -145.81, 0.66 -155.19 M12.42 -129.18 C9.24 -134.57, 7.85 -141.76, 1.43 -156.71" stroke="#000000" stroke-width="2" fill="none"></path></g><g transform="translate(2412.197991572737 810.2543128373907) rotate(0 0.19244934138191638 -79.16318746863686)"><path d="M-9.15 -130.28 C-6.93 -136.95, -3.62 -145.66, 0.66 -155.19 M-8.1 -129.16 C-6.64 -134.38, -3.37 -141.57, 1.43 -156.71" stroke="#000000" stroke-width="2" fill="none"></path></g></g><mask></mask><g stroke-linecap="round"><g transform="translate(2240.84902011943 738.5799306611996) rotate(0 -0.18066353109793454 35.57025133100967)"><path d="M-1.01 -0.74 C-1.1 11.18, 0.1 58.86, 0.4 70.86 M0.66 1.48 C0.36 13.59, -0.3 60.1, -0.34 71.88" stroke="#000000" stroke-width="2" fill="none"></path></g></g><mask></mask><g stroke-linecap="round"><g transform="translate(2242.010465468164 810.4029763951091) rotate(0 84.56896581823639 0.35200240727732535)"><path d="M0.46 0.89 C28.85 1.18, 141.76 1.13, 169.9 1.12 M-0.76 0.31 C27.46 0.34, 139.95 -0.19, 168.67 -0.42" stroke="#000000" stroke-width="2" fill="none"></path></g></g><mask></mask><g stroke-linecap="round"><g transform="translate(1836.2949086245533 646.8909658745611) rotate(0 -0.22001608403206774 41.923998228497055)"><path d="M0.7 -0.19 C0.57 13.79, -0.14 69.84, -0.1 83.94 M-0.39 -1.34 C-0.75 12.79, -1.28 70.69, -1.11 85.19" stroke="#000000" stroke-width="2" fill="none"></path></g></g><mask></mask><g stroke-linecap="round"><g transform="translate(2277.739472853158 735.5236784703973) rotate(0 -0.4428678597836324 -43.104805087041655)"><path d="M-0.12 0.15 C0.02 -14.14, 0.67 -70.5, 0.75 -84.85 M-1.64 -0.81 C-1.58 -15.49, -0.04 -72.4, 0.2 -86.36" stroke="#000000" stroke-width="2" fill="none"></path></g></g><mask></mask><g stroke-linecap="round"><g transform="translate(1835.1733851441372 736.3832948162599) rotate(0 201.61423092973757 -0.8064412742141371)"><path d="M-0.38 0.09 C66.93 0.06, 336.3 0.3, 403.61 0.22 M1.62 -0.91 C68.87 -1.35, 336.14 -2.05, 403.04 -1.79" stroke="#000000" stroke-width="2" fill="none"></path></g><g transform="translate(1835.1733851441372 736.3832948162599) rotate(0 201.61423092973757 -0.8064412742141371)"><path d="M375 9.68 C383 6.71, 389.72 4.6, 404.84 -0.22 M374.26 8.08 C382.88 4.98, 391.07 3.47, 403.79 -0.84" stroke="#000000" stroke-width="2" fill="none"></path></g><g transform="translate(1835.1733851441372 736.3832948162599) rotate(0 201.61423092973757 -0.8064412742141371)"><path d="M375 -10.84 C383.06 -8.13, 389.79 -4.55, 404.84 -0.22 M374.26 -12.44 C383.06 -9.69, 391.25 -5.34, 403.79 -0.84" stroke="#000000" stroke-width="2" fill="none"></path></g></g><mask></mask><g stroke-linecap="round"><g transform="translate(2279.337985377481 735.3660515219137) rotate(0 -20.389077873162478 -0.20302898883818443)"><path d="M0.38 0.58 C-6.32 0.47, -33.41 -0.82, -40.07 -0.99 M-0.89 -0.15 C-7.77 -0.13, -34.6 -0.11, -41.15 0.03" stroke="#000000" stroke-width="2" fill="none"></path></g><g transform="translate(2279.337985377481 735.3660515219137) rotate(0 -20.389077873162478 -0.20302898883818443)"><path d="M-21.55 -7.39 C-29.94 -4.34, -34.78 -1.15, -42.58 -0.16 M-22.7 -6.41 C-25.45 -5.64, -30.81 -3.22, -40.25 0.34" stroke="#000000" stroke-width="2" fill="none"></path></g><g transform="translate(2279.337985377481 735.3660515219137) rotate(0 -20.389077873162478 -0.20302898883818443)"><path d="M-21.42 6.22 C-29.82 5.06, -34.69 4.04, -42.58 -0.16 M-22.57 7.2 C-25.32 5.19, -30.71 4.84, -40.25 0.34" stroke="#000000" stroke-width="2" fill="none"></path></g></g><mask></mask><g stroke-linecap="round"><g transform="translate(2036.7265038189262 884.2591658311055) rotate(0 83.26503689440585 -0.17457897663121003)"><path d="M-0.28 0.47 C27.56 0.43, 139.17 -0.59, 166.81 -0.82 M1.77 -0.33 C29.57 -0.18, 139.29 0.25, 166.45 0.29" stroke="#000000" stroke-width="2" fill="none"></path></g></g><mask></mask><g stroke-linecap="round"><g transform="translate(2122.259790592198 886.1352760301831) rotate(0 -0.0025316672679309704 34.95989642221298)"><path d="M-0.23 -0.9 C-0.15 10.87, -0.77 59.21, -0.59 70.82 M-1.81 1.25 C-1.23 12.69, 1.42 57.89, 1.8 69.27" stroke="#000000" stroke-width="2" fill="none"></path></g><g transform="translate(2122.259790592198 886.1352760301831) rotate(0 -0.0025316672679309704 34.95989642221298)"><path d="M-11.29 40.61 C-5.49 48.77, -6.57 51.8, 0.99 70.85 M-8.8 40.63 C-7.43 47.23, -5.25 55.19, 1.86 69.95" stroke="#000000" stroke-width="2" fill="none"></path></g><g transform="translate(2122.259790592198 886.1352760301831) rotate(0 -0.0025316672679309704 34.95989642221298)"><path d="M9.21 39.63 C10.73 47.96, 5.39 51.19, 0.99 70.85 M11.7 39.65 C8.33 46.27, 5.76 54.46, 1.86 69.95" stroke="#000000" stroke-width="2" fill="none"></path></g></g><mask></mask><g stroke-linecap="round"><g transform="translate(2036.871444264933 646.0003843748955) rotate(0 0.048353414447319665 118.76340267050927)"><path d="M0.99 -0.07 C1.01 39.55, 0.09 198.76, 0.04 238.68 M0.05 -1.15 C-0.07 38.01, -0.92 196.97, -0.89 236.78" stroke="#000000" stroke-width="2" fill="none"></path></g><g transform="translate(2036.871444264933 646.0003843748955) rotate(0 0.048353414447319665 118.76340267050927)"><path d="M-11.19 208.62 C-7.18 217.78, -2.95 226.78, -0.4 235.49 M-10.46 207.77 C-8.66 216.57, -4.52 225.44, -0.91 236.66" stroke="#000000" stroke-width="2" fill="none"></path></g><g transform="translate(2036.871444264933 646.0003843748955) rotate(0 0.048353414447319665 118.76340267050927)"><path d="M9.33 208.68 C7.37 217.98, 5.63 226.97, -0.4 235.49 M10.06 207.83 C5.81 216.48, 3.9 225.33, -0.91 236.66" stroke="#000000" stroke-width="2" fill="none"></path></g></g><mask></mask><g stroke-linecap="round"><g transform="translate(2199.5317233626197 650.0890825134163) rotate(0 0.5499090470474357 117.02969089313706)"><path d="M-0.5 -0.36 C-0.63 38.72, -0.84 195.45, -0.63 234.55 M1.44 -1.59 C1.7 37.61, 1.93 196.23, 1.75 235.65" stroke="#000000" stroke-width="2" fill="none"></path></g><g transform="translate(2199.5317233626197 650.0890825134163) rotate(0 0.5499090470474357 117.02969089313706)"><path d="M-9.08 206.4 C-6.65 217.51, -4 223.86, 2.71 235.19 M-7.59 207.85 C-5.61 216.93, -0.39 227.19, 0.88 236.21" stroke="#000000" stroke-width="2" fill="none"></path></g><g transform="translate(2199.5317233626197 650.0890825134163) rotate(0 0.5499090470474357 117.02969089313706)"><path d="M11.45 206.42 C7.47 217.44, 3.73 223.78, 2.71 235.19 M12.93 207.87 C7.44 216.94, 5.18 227.19, 0.88 236.21" stroke="#000000" stroke-width="2" fill="none"></path></g></g><mask></mask><g stroke-linecap="round" transform="translate(1993.6372830907465 957.4029782487326) rotate(0 128.5 21.5)"><path d="M10.75 0 M10.75 0 C90.93 0.97, 172.49 0.67, 246.25 0 M10.75 0 C104.78 1.21, 198.29 1.83, 246.25 0 M246.25 0 C252.99 -1.54, 256.69 3.16, 257 10.75 M246.25 0 C251.45 2.1, 256.3 1.52, 257 10.75 M257 10.75 C258.24 20.51, 258.47 26.02, 257 32.25 M257 10.75 C256.6 16.64, 257.18 21.46, 257 32.25 M257 32.25 C256.58 40.4, 252.66 41.52, 246.25 43 M257 32.25 C256.87 39.81, 254.77 45.14, 246.25 43 M246.25 43 C157.19 42.29, 67.33 40.59, 10.75 43 M246.25 43 C196.24 42.08, 144.57 42.56, 10.75 43 M10.75 43 C2.37 41.55, 0.98 37.47, 0 32.25 M10.75 43 C1.93 42.02, -1.39 38.97, 0 32.25 M0 32.25 C1.35 25.39, 1.83 20.33, 0 10.75 M0 32.25 C-0.88 24.93, -0.72 18.54, 0 10.75 M0 10.75 C-0.65 4.76, 5.3 -0.42, 10.75 0 M0 10.75 C1.99 2.43, 1.61 -0.47, 10.75 0" stroke="#000000" stroke-width="2" fill="none"></path></g><g transform="translate(2002.1372830907465 962.9029782487326) rotate(0 120 16)"><text x="120" y="25" font-family="Helvetica, Segoe UI Emoji" font-size="28px" fill="#000000" text-anchor="middle" style="white-space: pre;" direction="ltr">Searched Products</text></g></svg>